<svg width="130" height="34" viewBox="0 0 130 34" fill="none" xmlns="http://www.w3.org/2000/svg">
<path fill-rule="evenodd" clip-rule="evenodd" d="M17.1575 1.25343e-07C21.707 1.25343e-07 26.0702 1.79111 29.287 4.97924C32.5039 8.16737 34.3108 12.4913 34.3102 16.9998C34.3102 23.8757 30.1304 30.0746 23.7198 32.7057C17.3092 35.3368 9.93041 33.882 5.02431 29.0197C0.118217 24.1573 -1.34897 16.8451 1.30693 10.4928C3.96284 4.1405 10.2188 -0.000831886 17.1575 1.25343e-07ZM9.73537 6.86944C9.00889 6.70569 8.25234 6.72764 7.53677 6.93322C7.56065 6.9579 7.57674 6.97436 7.58686 6.98465L7.60113 6.99905L7.80874 7.02991C9.04999 7.141 10.2379 7.58243 11.2468 8.30751C11.6534 8.58488 12.0298 8.90343 12.3699 9.258C12.6834 9.60364 13.0239 10.0295 13.1277 10.4389C13.2315 10.8483 13.4641 11.1816 13.5741 11.5643C13.9353 12.8234 14.0848 14.6503 13.2544 15.7654C12.9658 16.1562 12.4696 16.5492 12.8537 17.1664C12.8703 17.1973 12.808 17.2651 12.808 17.3186C12.7764 17.5041 12.7673 17.6927 12.781 17.8803C12.8682 18.4296 12.9741 18.9768 13.0758 19.5262C13.0841 19.5632 13.1049 19.5982 13.1049 19.6352C13.6945 21.2811 14.3796 22.8488 15.8516 23.9556C16.4744 24.4247 16.4972 24.832 16.082 25.4719C15.6523 26.1528 15.1893 26.8215 14.7741 27.5127H15.3388L15.3845 27.4284C15.6917 26.9182 16.0156 26.4285 16.3374 25.9121C16.6592 25.3957 16.9644 24.8732 17.3007 24.3671C17.3943 24.2311 17.5332 24.132 17.6931 24.0873L17.7782 24.0708C17.8766 24.052 17.9777 24.0868 18.0432 24.1619C18.1088 24.2371 18.1288 24.3412 18.0959 24.435C18.0004 24.7086 17.9194 24.9966 17.8467 25.2908C17.6827 25.9492 17.5561 26.6301 17.3962 27.237C17.6121 27.1938 17.7139 27.2062 17.9381 27.1609C18.0253 26.6425 18.2246 25.9142 18.3782 25.3402C18.4509 25.0624 18.592 24.3321 18.81 24.0934C19.028 23.8548 19.709 23.6573 20.2488 23.3981C20.3573 23.3422 20.4734 23.302 20.5934 23.2787C20.705 23.2681 20.8175 23.2729 20.9277 23.2931C21.1752 23.3308 21.4196 23.3872 21.6585 23.4618C22.379 23.7645 22.9834 24.287 23.3837 24.9534C23.8072 25.6426 24.565 26.1775 25.1878 26.7001C25.4903 26.9554 25.8975 27.0525 26.284 26.9614H26.2965C26.666 27.2062 27.374 27.4078 27.7041 27.2864C28.0342 27.165 28.5221 26.9202 28.5221 26.5273C28.5915 26.4954 28.6564 26.4546 28.7151 26.4059C28.863 26.2704 28.8793 26.0445 28.7525 25.8895C28.3269 25.1879 27.3615 24.8732 26.7138 24.4103C25.8031 23.7629 24.9034 23.0963 24.0148 22.4105C23.8532 22.2984 23.7085 22.164 23.5851 22.0114C23.2986 21.6267 23.2944 21.0506 23.1387 20.598C22.963 20.0801 22.7112 19.5906 22.3913 19.1456C22.1449 18.8152 21.9169 18.4718 21.7083 18.1169C21.1228 17.1108 20.5415 16.1048 19.6176 15.3601C19.1131 14.9527 19.1547 14.4445 19.1692 13.8644C19.1892 13.1506 19.0103 12.4452 18.6523 11.8256C17.8654 10.4657 16.4017 9.88549 14.8862 9.76822C14.6222 9.75468 14.3658 9.67543 14.1409 9.5378C13.8276 9.30085 13.5345 9.03868 13.2648 8.75396C12.2987 7.79845 11.072 7.14345 9.73537 6.86944ZM73.4767 0.479371C73.8423 0.467922 74.2048 0.550992 74.5301 0.720799C74.7796 0.868406 74.9846 1.08258 75.1229 1.34012C75.2714 1.6311 75.3639 1.94816 75.3956 2.27434C75.4393 2.66667 75.4573 3.06153 75.4493 3.45629C75.4338 4.06679 75.3164 4.67018 75.1023 5.24077C74.8648 5.88237 74.5732 6.5019 74.2306 7.09242C73.867 7.71812 73.4677 8.32167 73.0347 8.89999C72.5989 9.49411 72.1548 10.0567 71.7169 10.5795L71.6198 10.695L71.9916 10.9637L72.0722 10.8629C72.3599 10.4988 72.6733 10.1563 73.0099 9.83841C73.2135 9.62897 73.4869 9.50464 73.7762 9.48991C74.0912 9.48847 74.401 9.571 74.6747 9.72924C74.9377 9.88984 75.1649 10.1043 75.3419 10.3591C75.5292 10.63 75.669 10.9319 75.755 11.2513C75.8502 11.5926 75.8954 11.9463 75.8893 12.301C75.8851 12.6117 75.8686 12.9119 75.8397 13.1932C75.8116 13.4667 75.7633 13.7375 75.6951 14.0036C75.6265 14.2725 75.536 14.5351 75.4245 14.7887C75.2965 15.0696 75.1459 15.3392 74.9742 15.5949L74.652 16.0799L75.1539 15.7923C75.3811 15.6642 75.598 15.5466 75.8294 15.4228C76.0607 15.2989 76.292 15.1645 76.5316 15.0155C76.7712 14.8664 77.0108 14.6985 77.2463 14.5179C77.4621 14.3531 77.669 14.1765 77.866 13.9889L77.8969 13.9595L77.9362 13.7873C77.9527 13.7223 77.9692 13.6509 77.9878 13.5774C78.1241 13.0211 78.2605 12.4773 78.4237 11.9168C78.5868 11.3563 78.7232 10.8398 78.8368 10.3863C78.8751 10.2513 78.9529 10.1312 79.0598 10.042C79.1831 9.93572 79.3226 9.85062 79.4729 9.79012C79.627 9.72479 79.7877 9.67691 79.9521 9.64737C80.1006 9.61935 80.2514 9.60529 80.4024 9.60538C80.6895 9.60958 80.7928 9.67676 80.8279 9.71665C80.8972 9.79764 80.9314 9.90359 80.9229 10.0106C80.9099 10.2003 80.8773 10.3882 80.8259 10.5711C80.7598 10.8314 80.6895 11.1211 80.5842 11.4423C80.4789 11.7635 80.3797 12.112 80.2723 12.492C80.1649 12.872 80.0595 13.2436 79.9583 13.6257C79.8571 14.0078 79.7745 14.3815 79.7063 14.7363C79.6431 15.0637 79.6065 15.3958 79.5969 15.7293C79.5847 15.9729 79.6155 16.2168 79.6878 16.4494C79.7577 16.6668 79.9629 16.809 80.1876 16.7958C80.4726 16.7881 80.7509 16.7057 80.9952 16.5564C81.2911 16.39 81.5741 16.2013 81.8421 15.9917C82.1209 15.7734 82.3998 15.5445 82.6683 15.3115L82.8501 15.154V15.0995C82.8769 14.8874 82.9058 14.6691 82.9368 14.4424C82.9967 14.0498 83.0649 13.6341 83.1434 13.21C83.2219 12.7859 83.3024 12.4018 83.3871 12.0155C83.4718 11.6292 83.5585 11.2786 83.6412 10.9658C83.7089 10.7049 83.7917 10.4484 83.889 10.1974C83.9275 10.0925 83.9752 9.99132 84.0316 9.89509C84.0664 9.83704 84.112 9.78641 84.1658 9.74604C84.2213 9.70986 84.2842 9.6869 84.3496 9.67886C84.4599 9.66448 84.5711 9.65957 84.6822 9.66416C84.7991 9.66298 84.9159 9.67212 85.0313 9.69145C85.0749 9.69441 85.1153 9.71571 85.1428 9.75024C85.1759 9.80747 85.1931 9.87279 85.1924 9.93918V10.3863L85.18 11.2261V12.3346H85.496L85.5353 12.259C85.6619 12.0057 85.8045 11.7258 85.9628 11.4192C86.1152 11.1231 86.2943 10.842 86.4978 10.5795C86.6888 10.3361 86.9151 10.1237 87.1691 9.94968C87.413 9.78411 87.7022 9.70108 87.9953 9.71245C88.0957 9.71235 88.1952 9.73158 88.2886 9.76913C88.3786 9.80323 88.4613 9.85454 88.5323 9.92029C88.6019 9.9845 88.6568 10.0633 88.6934 10.1512C88.734 10.2509 88.753 10.3583 88.7492 10.4661C88.7419 10.607 88.7253 10.7473 88.6996 10.886V10.9091C88.6666 11.0917 88.6315 11.2723 88.5922 11.4822C88.553 11.6922 88.5137 11.8958 88.4807 12.091C88.4492 12.2608 88.4305 12.4327 88.4249 12.6054C88.4174 12.8075 88.4382 13.0097 88.4869 13.2058C88.5224 13.3564 88.5855 13.4988 88.6728 13.6257C88.7488 13.7283 88.849 13.8098 88.964 13.8629C89.0688 13.9099 89.1821 13.9342 89.2966 13.9343C89.6097 13.935 89.92 13.8729 90.2095 13.7517C90.2488 13.737 90.286 13.7181 90.3231 13.7013L90.4347 13.6509L90.4574 13.6005C90.5256 13.4367 90.5875 13.3045 90.6516 13.1806C90.8499 12.8063 91.0867 12.4545 91.358 12.1309C91.912 11.4684 92.6178 10.9544 93.4132 10.6341C93.5776 10.5681 93.7459 10.5127 93.9172 10.4682C94.4316 10.3448 94.8144 9.90623 94.8735 9.37235C94.9169 8.8643 94.983 8.35625 95.0697 7.8566C95.1978 7.11167 95.3709 6.37549 95.5882 5.65225C95.7876 4.99219 96.0347 4.34802 96.3276 3.72501C96.5744 3.19332 96.8756 2.68949 97.2261 2.22186C97.5135 1.83933 97.8627 1.50922 98.2589 1.24565C98.5764 1.03068 98.9494 0.916 99.3309 0.916042C99.5658 0.911942 99.7956 0.985631 99.9857 1.12598C100.174 1.27756 100.326 1.47161 100.428 1.69281C100.552 1.9582 100.635 2.24146 100.673 2.53257C100.724 2.86801 100.746 3.20726 100.74 3.54657C100.735 3.7565 100.723 3.97904 100.702 4.20787C100.615 5.03935 100.455 5.86132 100.225 6.66415C100.004 7.43316 99.7432 8.18996 99.4445 8.93148C99.145 9.66626 98.829 10.3926 98.4716 11.119C98.1143 11.8454 97.7714 12.6096 97.4389 13.3927C97.3986 13.5003 97.3648 13.6104 97.3377 13.7223C97.3046 13.8524 97.2716 13.9868 97.2406 14.1421C97.2096 14.2975 97.1827 14.4507 97.1621 14.5998C97.1416 14.7529 97.1299 14.9072 97.127 15.0617C97.1245 15.2398 97.1328 15.4179 97.1518 15.5949C97.1688 15.7555 97.2049 15.9134 97.2592 16.0652C97.3062 16.2024 97.3848 16.3262 97.4884 16.4263C97.5969 16.5264 97.7385 16.5811 97.885 16.5795C98.0303 16.5804 98.1748 16.557 98.3126 16.5102C98.4709 16.4583 98.6249 16.3937 98.7732 16.3171C98.926 16.2394 99.0954 16.1429 99.2545 16.0421C99.4135 15.9413 99.5705 15.8363 99.7213 15.7314C99.9753 15.5508 100.151 15.5109 100.308 15.597C100.436 15.6808 100.538 15.8013 100.599 15.9434C100.659 16.0625 100.701 16.1898 100.725 16.3213C100.738 16.4159 100.739 16.512 100.727 16.6068C100.665 17.075 100.184 17.3563 99.7585 17.604L99.5788 17.709C99.397 17.8203 99.2152 17.9273 99.019 18.0302C98.8228 18.1331 98.6307 18.2275 98.4448 18.3052C98.2672 18.3807 98.0851 18.4445 97.8995 18.4963C97.7484 18.5404 97.592 18.563 97.4347 18.5634C97.3155 18.5549 97.1972 18.5353 97.0815 18.5047C96.901 18.4564 96.7284 18.3814 96.5693 18.2821C96.3607 18.1495 96.1728 17.986 96.0116 17.7972C95.8035 17.5484 95.6405 17.2641 95.5303 16.9574L95.456 16.7664L95.3093 16.907C95.0799 17.1303 94.8385 17.3405 94.5864 17.5368C94.3407 17.727 94.0795 17.8956 93.8056 18.0407C93.546 18.1788 93.2742 18.292 92.9939 18.3787C92.7328 18.4592 92.4611 18.4981 92.1883 18.4942C91.8504 18.4977 91.5179 18.4085 91.2258 18.2359C90.9545 18.0673 90.7238 17.8392 90.5503 17.5683C90.3652 17.2759 90.2303 16.9536 90.1517 16.6152C90.0822 16.3206 90.0427 16.0195 90.034 15.7167V15.5298L89.7964 15.6096C89.7627 15.623 89.7282 15.6342 89.6932 15.6432C89.4594 15.7144 89.2163 15.7484 88.9723 15.744C88.6084 15.755 88.2492 15.6572 87.9395 15.4627C87.6786 15.2816 87.4658 15.0378 87.3199 14.7531C87.1589 14.4359 87.0447 14.0963 86.9811 13.7454C86.9088 13.3717 86.851 12.9812 86.8076 12.5865L86.7932 12.4647H86.4296L84.6719 17.2051C84.5851 17.4403 84.5004 17.6376 84.4261 17.7909C84.3659 17.9181 84.2925 18.0385 84.2071 18.1499C84.1519 18.2213 84.0812 18.2787 84.0006 18.3178C83.9211 18.3499 83.836 18.3649 83.7506 18.3619C83.5637 18.3693 83.3791 18.3179 83.2219 18.2149C83.0891 18.1151 82.985 17.981 82.9203 17.8266C82.842 17.6387 82.7925 17.4397 82.7737 17.2366C82.7592 17.1631 82.7592 17.096 82.7592 17.0267L82.7427 16.7454L82.5361 16.8881C82.4741 16.9322 82.4122 16.9784 82.3461 17.0225C82.0086 17.2586 81.6544 17.4691 81.2865 17.6523C80.9147 17.8377 80.5294 17.9935 80.1339 18.1184C79.7816 18.2338 79.4135 18.2919 79.0433 18.2905C78.7864 18.2927 78.5313 18.2457 78.2915 18.152C78.1079 18.0772 77.9454 17.9575 77.8185 17.8035C77.6934 17.6447 77.6064 17.4586 77.5644 17.2597C77.5106 17.0173 77.4863 16.7691 77.4921 16.5207C77.4942 16.4347 77.5045 16.3444 77.5045 16.252L77.521 15.9833L77.2959 16.124C77.0299 16.2929 76.754 16.445 76.4697 16.5795C76.1145 16.7444 75.7487 16.8846 75.3749 16.9994C75.2262 17.0456 75.0672 17.0792 74.8999 17.1149C74.624 17.1612 74.3543 17.2401 74.0964 17.35C73.7082 17.5469 73.3047 17.7112 72.8901 17.8412C72.3607 17.9865 71.8049 18.0016 71.2687 17.8853C71.1303 17.858 70.9919 17.8349 70.8556 17.8119C70.411 17.7534 69.9753 17.6392 69.5584 17.4718L69.3643 17.392C69.1866 17.308 68.9181 17.2093 68.6744 17.0981L68.6021 17.0645L68.5381 17.1107C68.2828 17.2925 68.0157 17.4567 67.7387 17.6019C67.4615 17.7457 67.1718 17.8631 66.8732 17.9525C66.571 18.0397 66.2579 18.0815 65.9438 18.0764C65.6649 18.0701 65.4315 17.8433 65.2249 17.3983C65.0101 16.9196 64.911 16.2037 64.9254 15.2737C64.9343 14.8734 64.9646 14.474 65.0163 14.0771C65.0721 13.6551 65.1382 13.1995 65.2229 12.6852L65.2477 12.5256H64.8594L62.327 17.4361C62.2483 17.6213 62.1203 17.7806 61.9573 17.8958C61.815 17.9769 61.6534 18.0161 61.4905 18.0092C61.3037 18.0155 61.1194 17.9643 60.9617 17.8622C60.8283 17.7622 60.7241 17.6272 60.6601 17.4718C60.5813 17.2841 60.5319 17.085 60.5135 16.8818C60.5145 16.87 60.5145 16.858 60.5135 16.8461L60.4908 16.5837L60.2656 16.7265C60.026 16.865 59.7658 17.0099 59.4931 17.1464C59.2242 17.2814 58.9484 17.402 58.6669 17.5074C58.4044 17.6079 58.1352 17.6893 57.8614 17.751C57.6238 17.8078 57.3804 17.836 57.1364 17.835C56.9506 17.8371 56.7673 17.7916 56.6034 17.7027C56.4532 17.6116 56.3243 17.4884 56.2255 17.3416C56.1064 17.1644 56.0132 16.9707 55.9487 16.7664C55.8631 16.5159 55.7941 16.2599 55.7421 16.0001L55.6843 15.7062L55.5025 15.9413C55.2863 16.2183 55.0516 16.4799 54.8002 16.7244C54.5701 16.9506 54.3213 17.1564 54.0567 17.3395C53.8229 17.503 53.5704 17.6369 53.3048 17.7384C53.0773 17.827 52.8358 17.8725 52.5922 17.8727C52.4134 17.8704 52.2364 17.8356 52.0696 17.7699C51.9085 17.7011 51.7666 17.5929 51.6565 17.455C51.5213 17.2782 51.4229 17.0754 51.3673 16.8587C51.2888 16.5484 51.2554 16.2279 51.2682 15.9077C51.2933 15.2995 51.3624 14.6939 51.4748 14.096C51.5429 13.6824 51.6235 13.2331 51.7102 12.7544L51.7681 12.4353L49.8347 13.7244L49.8492 13.8146C49.8822 14.0165 49.8974 14.2209 49.8946 14.4256C49.8924 14.8646 49.8105 15.2994 49.653 15.7083C49.5056 16.091 49.2962 16.4458 49.0333 16.758C48.7641 17.07 48.4525 17.3415 48.1079 17.5641C47.7507 17.7978 47.3681 17.9887 46.9678 18.1331C46.5533 18.2832 46.126 18.3935 45.6913 18.4627C45.2481 18.5346 44.7995 18.5669 44.3508 18.5592C43.7301 18.5502 43.1132 18.4613 42.5145 18.2947C41.9496 18.141 41.414 17.8919 40.9302 17.5578C40.4772 17.2419 40.099 16.8274 39.8231 16.3444C39.5397 15.8275 39.4011 15.2415 39.4224 14.6502C39.4221 14.3468 39.4811 14.0464 39.5959 13.7664C39.6962 13.5334 39.8361 13.3202 40.009 13.1365C40.1585 12.9762 40.3375 12.8471 40.5357 12.7565C40.7032 12.6723 40.888 12.6298 41.0748 12.6327C41.2353 12.63 41.3914 12.6859 41.5148 12.7901C41.6448 12.9108 41.7113 13.0865 41.6945 13.2646C41.6934 13.3622 41.6816 13.4594 41.6594 13.5543C41.6367 13.6572 41.616 13.758 41.5912 13.8671C41.5664 13.9763 41.5437 14.1002 41.521 14.2408C41.499 14.3853 41.4873 14.5313 41.4859 14.6775C41.4698 14.9868 41.5415 15.2943 41.6924 15.5634C41.8429 15.8179 42.0494 16.0334 42.2956 16.1932C42.5685 16.3678 42.8679 16.4955 43.1817 16.5711C43.5267 16.6565 43.88 16.7023 44.2351 16.7076C44.6684 16.7119 45.1008 16.6661 45.524 16.5711C45.9292 16.4823 46.3191 16.3323 46.6807 16.1261C47.0022 15.9423 47.2834 15.6937 47.5069 15.3955C47.7162 15.108 47.8299 14.7601 47.8312 14.4025C47.8402 14.0727 47.7494 13.748 47.5709 13.4724C47.3691 13.1733 47.1208 12.9095 46.8356 12.6915C46.5008 12.4317 46.1457 12.2 45.7739 11.9987C45.3732 11.7782 44.9663 11.5599 44.547 11.3311C44.1277 11.1022 43.7125 10.8629 43.318 10.6194C42.9316 10.3817 42.5691 10.1061 42.2357 9.79642C41.9275 9.50826 41.6697 9.16892 41.4735 8.79292C41.2772 8.40384 41.1819 7.97027 41.1967 7.53329C41.2066 7.08332 41.3197 6.64191 41.5272 6.24427C41.7594 5.79902 42.0869 5.41235 42.4856 5.1127C42.9562 4.76068 43.4841 4.49561 44.0451 4.32964C44.75 4.12281 45.4827 4.0307 46.2159 4.05672C46.7404 4.06578 47.2605 4.15495 47.7589 4.32124C48.2402 4.48045 48.6929 4.71797 49.0994 5.02453C49.4806 5.31476 49.8008 5.6795 50.0413 6.09731C50.2791 6.51523 50.3985 6.99189 50.3862 7.47451C50.3794 7.78524 50.3236 8.09285 50.221 8.38564C50.1008 8.7226 49.9368 9.04173 49.7335 9.33456C49.548 9.62576 49.3028 9.87281 49.0147 10.0588C48.8069 10.1971 48.5667 10.2768 48.3186 10.2898C48.1593 10.2962 48.004 10.2381 47.8869 10.1281C47.7721 10.0066 47.7149 9.84036 47.73 9.67256C47.7372 9.50498 47.7714 9.33974 47.8312 9.1834C47.9154 8.96165 48.0242 8.75035 48.1555 8.55359C48.2764 8.36919 48.3775 8.17211 48.457 7.96576C48.5189 7.7991 48.5531 7.62316 48.5582 7.44512C48.5665 7.21677 48.5028 6.9917 48.3765 6.80271C48.2356 6.6043 48.0519 6.44128 47.8394 6.32615C47.5738 6.18195 47.2883 6.07933 46.9926 6.02174C46.6299 5.9489 46.2613 5.91025 45.8916 5.90627C45.5024 5.89355 45.1134 5.93882 44.737 6.04063C44.4426 6.11934 44.1633 6.24779 43.9108 6.42062C43.714 6.55448 43.5495 6.73172 43.4295 6.93917C43.3298 7.11057 43.2744 7.30485 43.2684 7.5039C43.2557 7.8062 43.3397 8.10455 43.508 8.35415C43.7124 8.63675 43.9607 8.88352 44.2434 9.08473C44.5795 9.33032 44.9338 9.5493 45.303 9.73974L46.5299 10.3884C46.9554 10.611 47.3685 10.8503 47.7692 11.1043C48.159 11.3503 48.5207 11.6397 48.8474 11.9672C49.0086 12.1271 49.1545 12.3021 49.2832 12.4899L49.372 12.6159L52.6418 9.62637H52.6666L52.7161 9.56969C52.8076 9.45938 52.9157 9.36444 53.0363 9.28837C53.1735 9.2043 53.3305 9.15934 53.4907 9.15821C53.7104 9.15793 53.9282 9.19922 54.1331 9.27997C54.2178 9.32616 54.2673 9.37025 54.2673 9.41643C54.2074 9.74394 54.1413 10.1008 54.0711 10.506C54.0009 10.9112 53.9224 11.3185 53.8542 11.73C53.7861 12.1414 53.7158 12.5319 53.6477 12.9308C53.5795 13.3297 53.5196 13.674 53.4659 13.9805C53.4122 14.287 53.3688 14.5347 53.3379 14.7216C53.3009 14.9485 53.2927 15.0002 53.2909 15.0199L53.2904 15.0323C53.2883 15.1505 53.298 15.2687 53.3193 15.385C53.3402 15.4943 53.3757 15.6002 53.4246 15.6999C53.4747 15.7963 53.5452 15.8802 53.6312 15.9455C53.7232 16.0149 53.8347 16.0524 53.9493 16.0526C54.1154 16.0525 54.2793 16.0137 54.4285 15.9392C54.5933 15.8541 54.7433 15.742 54.8725 15.6075C55.0185 15.4515 55.1422 15.2756 55.2402 15.0848C55.3516 14.8623 55.4335 14.6258 55.4839 14.3815L56.4713 9.63897C56.494 9.5361 56.5952 9.44163 56.7728 9.36185C56.9895 9.26614 57.2246 9.22164 57.4606 9.23169C57.695 9.22322 57.9275 9.27828 58.134 9.39124C58.322 9.50881 58.3406 9.62847 58.3406 9.70615C58.3334 9.93124 58.312 10.1556 58.2765 10.378C58.2373 10.6593 58.1856 10.9805 58.1195 11.3248C58.0534 11.6691 57.9874 12.0239 57.913 12.3913C57.8386 12.7586 57.7705 13.0945 57.7064 13.42C57.6424 13.7454 57.5908 14.0204 57.5495 14.2597C57.5163 14.4315 57.4949 14.6055 57.4854 14.7803V15.2695C57.4872 15.4111 57.5052 15.552 57.5391 15.6894C57.5679 15.8111 57.6294 15.9223 57.7168 16.0106C57.8202 16.1 57.9529 16.1465 58.0886 16.1407C58.2724 16.1369 58.4545 16.1029 58.6277 16.04C58.8473 15.9639 59.0612 15.872 59.268 15.765C59.4931 15.6495 59.7245 15.5193 59.9537 15.3766C60.1334 15.2653 60.3152 15.1414 60.5094 14.9966L60.5589 14.9609L60.5796 14.751C60.6354 14.2135 60.7056 13.6677 60.7861 13.1113C60.8667 12.555 60.9617 12.0218 61.0609 11.5053C61.16 10.9889 61.2571 10.5459 61.3459 10.1869C61.4053 9.94004 61.5321 9.71521 61.7115 9.5382C61.9008 9.36375 62.1529 9.27706 62.4076 9.29887C62.6277 9.27539 62.8434 9.37302 62.9735 9.55499C63.0954 9.78602 63.1512 10.0471 63.1346 10.3087C63.13 10.4302 63.119 10.5515 63.1016 10.6719C63.0809 10.8293 63.0561 10.9994 63.0252 11.1904C62.9942 11.3815 62.9611 11.5767 62.9281 11.7782C62.895 11.9798 62.8641 12.1666 62.8331 12.3388C62.8021 12.5109 62.7773 12.66 62.7566 12.788C62.7396 12.8796 62.7279 12.9722 62.7215 13.0652V13.2058H63.1243L63.1636 13.1344C63.2028 13.0652 63.2627 12.9539 63.3453 12.8027L63.6304 12.2779C63.7378 12.068 63.8514 11.858 63.9753 11.6481C64.0992 11.4381 64.2149 11.2177 64.3223 11.0183C64.4297 10.8188 64.5185 10.6404 64.6156 10.4871C64.7127 10.3339 64.7767 10.2205 64.8222 10.147C64.9648 9.88084 65.1799 9.66215 65.4418 9.51721C65.6872 9.40333 65.9551 9.34872 66.2247 9.35765C66.4763 9.35427 66.7113 9.48486 66.8443 9.70195C67.0211 10.0074 67.1018 10.3605 67.0757 10.7139C67.0685 10.8219 67.0533 10.9293 67.0302 11.0351C67.0013 11.1925 66.9641 11.3899 66.9166 11.6124C66.8691 11.8349 66.8195 12.0784 66.7617 12.3493C66.7039 12.6201 66.6522 12.8951 66.6047 13.1764C66.5572 13.4577 66.5159 13.7412 66.4849 14.0162C66.4533 14.2726 66.4347 14.5304 66.4292 14.7887C66.415 15.1302 66.4612 15.4715 66.5655 15.7965C66.6279 16.0663 66.8608 16.26 67.1335 16.2688C67.2636 16.2656 67.3917 16.2349 67.5094 16.1785C67.6518 16.1138 67.7898 16.0394 67.9225 15.956C67.9969 15.9077 68.0774 15.8531 68.1683 15.7881L68.2179 15.7503V15.6873C68.2344 15.5046 68.2509 15.3178 68.2716 15.1225C68.3294 14.5788 68.4079 13.9196 68.505 13.1848C68.6021 12.45 68.7322 11.6145 68.8933 10.6992C69.0007 10.0966 69.135 9.40804 69.294 8.66276C69.4531 7.91748 69.641 7.1512 69.8497 6.39333C70.0583 5.63545 70.2958 4.88597 70.554 4.16588C70.7866 3.50752 71.0712 2.86933 71.405 2.25755C71.6659 1.76824 72.0004 1.3234 72.3965 0.939136C72.6818 0.645594 73.0707 0.480076 73.4767 0.479371ZM94.6752 11.4444L94.6298 11.4927C94.2138 11.6838 93.8331 11.9458 93.5041 12.2674C93.1837 12.5891 92.9059 12.9518 92.6778 13.3465C92.4617 13.7161 92.2884 14.1099 92.1615 14.52C92.049 14.8711 91.9857 15.2364 91.9735 15.6054C91.9713 15.7414 91.9838 15.8773 92.0107 16.0106C92.0397 16.153 92.0982 16.2875 92.1821 16.4053C92.2759 16.5325 92.4004 16.6331 92.5436 16.6971C92.7269 16.7767 92.9247 16.8161 93.124 16.8126H93.1364C93.268 16.8121 93.3976 16.7797 93.5144 16.7181C93.6379 16.6555 93.7531 16.5772 93.8572 16.485C93.966 16.3855 94.0668 16.2774 94.1588 16.1617C94.253 16.0442 94.3399 15.9208 94.4191 15.7923C94.6106 15.4777 94.7764 15.1477 94.9148 14.8055L94.9189 14.7783V14.7363C94.8966 14.6052 94.8842 14.4725 94.8818 14.3395C94.8632 14.1547 94.8632 13.9427 94.8632 13.7097V11.7908C94.8549 11.583 94.8528 11.5137 94.7599 11.4759L94.6752 11.4444ZM72.7806 11.3185C72.5406 11.3155 72.3024 11.3619 72.0804 11.4549C71.8361 11.5562 71.6142 11.7061 71.4277 11.8958C71.2134 12.1189 71.0356 12.3755 70.901 12.6558C70.7359 13.0054 70.6211 13.3773 70.5602 13.7601C70.5003 14.0918 70.4466 14.413 70.4053 14.6964C70.364 14.9798 70.3268 15.2023 70.2999 15.4522C70.2731 15.702 70.2462 15.9455 70.2256 16.1554C70.2111 16.2961 70.3247 16.3444 70.775 16.4704C70.9981 16.5333 71.2584 16.6089 71.3183 16.6089C71.4639 16.6373 71.6119 16.6514 71.7603 16.6509C72.1241 16.659 72.4826 16.5606 72.793 16.3675C73.1774 16.0997 73.4698 15.7165 73.6296 15.2716C73.8415 14.6833 73.9802 14.0705 74.0427 13.4472L74.042 13.4492C74.0632 13.2754 74.0774 13.0944 74.0852 12.9132L74.0922 12.6411C74.0945 12.4802 74.0786 12.3196 74.0447 12.1624C74.0094 12.0079 73.9386 11.864 73.8382 11.7425C73.726 11.6094 73.5844 11.5051 73.4251 11.4381C73.2195 11.3576 73.0009 11.317 72.7806 11.3185ZM98.8868 2.80548H98.8765C98.6018 2.82614 98.3573 2.98974 98.23 3.23796C98.0363 3.54803 97.8836 3.88259 97.7756 4.23306C97.6363 4.66363 97.5204 5.10166 97.4285 5.54518C97.3273 6.02174 97.2447 6.4794 97.1745 6.92657C97.1042 7.37374 97.0505 7.77052 97.0072 8.12742C96.9638 8.48431 96.9349 8.73833 96.9204 8.88739C96.8915 9.1939 96.8647 9.48991 96.8461 9.77543C96.8275 10.0609 96.813 10.3192 96.8027 10.5564C96.7924 10.7936 96.782 10.9994 96.782 11.1736L96.7651 12.3312L97.0361 11.7153V11.7237C97.3976 10.9217 97.728 10.1071 98.0461 9.31146C98.1721 8.97766 98.3023 8.61657 98.4365 8.23238C98.5708 7.8482 98.6906 7.47241 98.8021 7.09242C98.9137 6.71243 99.0128 6.33244 99.0954 5.96505C99.1748 5.61394 99.2348 5.25859 99.2751 4.90067C99.3206 4.46189 99.3474 4.1092 99.3474 3.85098C99.367 3.59364 99.3376 3.33488 99.2607 3.0889C99.2085 2.92285 99.0583 2.80892 98.8868 2.80548ZM73.3631 2.00982C73.1584 2.03139 72.9748 2.14753 72.8653 2.32473C72.7 2.55548 72.5613 2.80486 72.4522 3.06791C72.318 3.36392 72.1816 3.71242 72.0515 4.1176C71.9214 4.52278 71.7933 4.93426 71.6714 5.36253C71.5496 5.7908 71.4277 6.25267 71.3224 6.68934C71.217 7.12601 71.1158 7.55638 71.0249 7.96576C70.9341 8.37514 70.8556 8.73624 70.7895 9.07004C70.7234 9.40384 70.6697 9.66836 70.6304 9.8783L70.4631 10.781L70.8783 9.97907C71.0456 9.66206 71.2356 9.32406 71.4463 8.98186C71.657 8.63966 71.8677 8.27857 72.0887 7.89858C72.3097 7.51859 72.5163 7.13651 72.7228 6.74182C72.9294 6.34714 73.1194 5.93986 73.2908 5.51998C73.4611 5.10492 73.6053 4.67929 73.7225 4.24566C73.8397 3.80792 73.9178 3.36034 73.9559 2.90835C73.9559 2.88736 73.9539 2.84957 73.9435 2.73201C73.9324 2.63368 73.9095 2.5371 73.8754 2.44439C73.8371 2.3414 73.7812 2.24614 73.7101 2.16307C73.622 2.06292 73.4953 2.00692 73.3631 2.00982Z" fill="url(#paint0_linear_1704_1329)"/>
<path d="M117.645 12.3932C117.873 12.3932 117.988 12.7021 117.988 13.32C117.988 13.6558 117.847 14.0655 117.565 14.549C117.282 15.0192 116.913 15.4557 116.456 15.8587C116.013 16.2482 115.516 16.5706 114.965 16.8258C114.415 17.081 113.891 17.2086 113.394 17.2086C112.897 17.2086 112.507 17.1146 112.225 16.9265C111.943 16.7385 111.722 16.4832 111.56 16.1609C111.332 15.7042 111.144 14.8378 110.996 13.5618C110.849 12.2723 110.701 11.3723 110.553 10.8619C110.204 10.7948 109.895 10.6604 109.626 10.459C109.371 10.244 109.243 9.98883 109.243 9.69332C109.243 9.38439 109.378 9.16276 109.646 9.02843C109.928 8.89411 110.244 8.82695 110.593 8.82695C110.956 8.82695 111.278 8.91426 111.56 9.08888C111.937 8.77994 112.239 8.41727 112.467 8.00088C112.709 7.57105 112.83 7.00019 112.83 6.28829C112.83 5.56295 112.588 4.98537 112.104 4.55555C111.621 4.12572 110.909 3.9108 109.969 3.9108C109.042 3.9108 108.33 3.98468 107.833 4.13243C107.336 4.28019 106.906 4.44137 106.544 4.61599C106.194 4.79061 105.879 4.95179 105.597 5.09954C105.328 5.2473 105.073 5.32118 104.831 5.32118C104.589 5.32118 104.468 5.2473 104.468 5.09954C104.468 4.93836 104.596 4.68315 104.851 4.33392C105.106 3.98468 105.482 3.63545 105.979 3.28621C107.229 2.41313 108.639 1.9833 110.21 1.99673C111.782 1.99673 113.078 2.29224 114.099 2.88325C115.295 3.58172 115.892 4.62942 115.892 6.02636C115.906 7.18152 115.603 8.14192 114.986 8.90755C114.368 9.67317 113.602 10.2239 112.689 10.5597C112.89 11.003 113.051 11.4798 113.172 11.9902C113.307 12.5006 113.434 12.9708 113.555 13.4006C113.676 13.8304 113.81 14.1864 113.958 14.4684C114.119 14.7505 114.307 14.8915 114.522 14.8915C114.751 14.8915 115.019 14.7639 115.328 14.5087C115.65 14.2401 115.966 13.9513 116.275 13.6424C116.584 13.3334 116.859 13.0513 117.101 12.7961C117.356 12.5275 117.538 12.3932 117.645 12.3932ZM108.881 5.13984C109.055 5.13984 109.143 5.36819 109.143 5.82488C109.143 6.28157 109.116 6.7114 109.062 7.11436C108.941 7.89342 108.787 8.61876 108.599 9.29036C108.115 11.1171 107.873 12.185 107.873 12.4939V15.4557C107.873 16.181 107.598 16.678 107.047 16.9467C106.792 17.0675 106.544 17.1817 106.302 17.2892C106.073 17.3966 105.811 17.4504 105.516 17.4504C104.952 17.4504 104.67 16.8056 104.67 15.5161C104.67 14.2132 104.972 12.5745 105.576 10.6C106.181 8.62547 106.812 7.12108 107.47 6.0868C107.605 5.88532 107.799 5.67713 108.055 5.46221C108.31 5.2473 108.585 5.13984 108.881 5.13984Z" fill="#1987B6"/>
<path d="M127.496 13.8841C127.845 13.6289 128.16 13.32 128.443 12.9573C128.725 12.5812 128.96 12.3932 129.148 12.3932C129.349 12.3932 129.45 12.6887 129.45 13.2797C129.45 13.8573 129.282 14.408 128.946 14.9318C128.624 15.4423 128.194 15.8721 127.657 16.2213C126.555 16.9467 125.252 17.3093 123.748 17.3093C121.921 17.3093 120.504 16.8526 119.497 15.9392C118.489 15.0259 117.986 13.7565 117.986 12.1312C117.986 10.1299 118.469 8.22922 119.436 6.42932C119.759 5.83831 120.121 5.29431 120.524 4.79732C120.215 4.43466 119.967 4.05856 119.779 3.66903C119.604 3.26606 119.517 2.96384 119.517 2.76236C119.517 2.39969 119.651 2.21836 119.92 2.21836C120.108 2.23179 120.323 2.3594 120.565 2.60117L121.189 3.20562C121.35 3.3668 121.518 3.50113 121.693 3.60858C123.023 2.48029 124.453 1.91614 125.984 1.91614C127.529 1.91614 128.53 2.34596 128.987 3.20562C129.148 3.52799 129.228 3.92424 129.228 4.39436C129.228 5.10626 128.919 5.70399 128.301 6.18755C127.684 6.6711 126.851 6.91288 125.803 6.91288C124.769 6.91288 123.694 6.69797 122.579 6.26814C121.626 7.89342 121.149 9.59258 121.149 11.3656C121.149 13.8237 122.129 15.0527 124.091 15.0527C125.299 15.0527 126.434 14.6632 127.496 13.8841ZM123.547 5.01895C124.232 5.2473 124.977 5.36147 125.783 5.36147C126.589 5.36147 126.992 5.13984 126.992 4.69658C126.992 4.17273 126.663 3.9108 126.005 3.9108C125.105 3.9108 124.285 4.28019 123.547 5.01895Z" fill="#1987B6"/>
<path d="M41.0177 30.3734V25.1864H39V24.2684H44.1524V25.1864H42.1347V30.3734H41.0177Z" fill="#1987B6"/>
<path d="M46.2914 30.46C45.5583 30.46 44.9839 30.2579 44.5682 29.8538C44.1525 29.4497 43.9447 28.8955 43.9447 28.1912C43.9447 27.7351 44.0342 27.3368 44.2132 26.9962C44.3921 26.6556 44.6404 26.39 44.9579 26.1995C45.2812 26.009 45.6564 25.9138 46.0836 25.9138C46.5051 25.9138 46.8572 26.0032 47.1401 26.1822C47.423 26.3612 47.6366 26.6123 47.7809 26.9356C47.931 27.2589 48.006 27.637 48.006 28.07V28.3557H44.8193V27.7842H47.2353L47.0881 27.9054C47.0881 27.5013 47.0015 27.1925 46.8283 26.9789C46.6609 26.7653 46.4156 26.6585 46.0923 26.6585C45.7344 26.6585 45.4572 26.7855 45.261 27.0395C45.0705 27.2935 44.9752 27.6485 44.9752 28.1046V28.2172C44.9752 28.6906 45.0907 29.0456 45.3216 29.2823C45.5583 29.5132 45.8902 29.6287 46.3174 29.6287C46.5657 29.6287 46.7966 29.5969 47.0102 29.5334C47.2296 29.4642 47.4374 29.3545 47.6337 29.2044L47.9541 29.9318C47.7462 30.0992 47.498 30.2291 47.2094 30.3214C46.9207 30.4138 46.6147 30.46 46.2914 30.46Z" fill="#1987B6"/>
<path d="M48.9227 30.3734V27.0914C48.9227 26.9125 48.9169 26.7306 48.9053 26.5459C48.8938 26.3612 48.8765 26.1793 48.8534 26.0003H49.9012L49.9878 26.8663H49.8839C50.0224 26.5603 50.2274 26.3265 50.4987 26.1649C50.77 25.9975 51.0846 25.9138 51.4426 25.9138C51.9564 25.9138 52.3432 26.0581 52.603 26.3467C52.8627 26.6354 52.9926 27.0857 52.9926 27.6976V30.3734H51.9102V27.7496C51.9102 27.3974 51.8409 27.1463 51.7024 26.9962C51.5696 26.8403 51.3675 26.7624 51.0962 26.7624C50.7614 26.7624 50.4958 26.8663 50.2995 27.0741C50.1032 27.282 50.0051 27.5591 50.0051 27.9054V30.3734H48.9227Z" fill="#1987B6"/>
<path d="M55.829 30.46C55.4479 30.46 55.1131 30.3705 54.8245 30.1916C54.5358 30.0068 54.3107 29.7441 54.149 29.4035C53.9874 29.0629 53.9065 28.6559 53.9065 28.1825C53.9065 27.7092 53.9874 27.305 54.149 26.9702C54.3107 26.6296 54.5358 26.3698 54.8245 26.1909C55.1131 26.0061 55.4479 25.9138 55.829 25.9138C56.1984 25.9138 56.5217 26.0061 56.7988 26.1909C57.0817 26.3698 57.2693 26.6123 57.3617 26.9183H57.2664L57.3617 26.0003H58.4008C58.3835 26.1793 58.3662 26.3612 58.3489 26.5459C58.3373 26.7306 58.3316 26.9125 58.3316 27.0914V30.3734H57.2578L57.2491 29.4728H57.353C57.2607 29.773 57.073 30.0126 56.7902 30.1916C56.5073 30.3705 56.1869 30.46 55.829 30.46ZM56.132 29.6287C56.4726 29.6287 56.7469 29.5103 56.9547 29.2736C57.1625 29.0312 57.2664 28.6675 57.2664 28.1825C57.2664 27.6976 57.1625 27.3368 56.9547 27.1001C56.7469 26.8634 56.4726 26.7451 56.132 26.7451C55.7914 26.7451 55.5172 26.8634 55.3094 27.1001C55.1016 27.3368 54.9976 27.6976 54.9976 28.1825C54.9976 28.6675 55.0987 29.0312 55.3007 29.2736C55.5086 29.5103 55.7857 29.6287 56.132 29.6287Z" fill="#1987B6"/>
<path d="M59.5103 30.3734V27.0914C59.5103 26.9125 59.5045 26.7306 59.4929 26.5459C59.4814 26.3612 59.4641 26.1793 59.441 26.0003H60.4888L60.5754 26.8663H60.4715C60.61 26.5603 60.815 26.3265 61.0863 26.1649C61.3576 25.9975 61.6723 25.9138 62.0302 25.9138C62.544 25.9138 62.9308 26.0581 63.1906 26.3467C63.4503 26.6354 63.5802 27.0857 63.5802 27.6976V30.3734H62.4978V27.7496C62.4978 27.3974 62.4285 27.1463 62.29 26.9962C62.1572 26.8403 61.9551 26.7624 61.6838 26.7624C61.349 26.7624 61.0834 26.8663 60.8871 27.0741C60.6908 27.282 60.5927 27.5591 60.5927 27.9054V30.3734H59.5103Z" fill="#1987B6"/>
<path d="M66.5984 30.46C66.0788 30.46 65.6863 30.3243 65.4207 30.053C65.1552 29.7817 65.0224 29.3747 65.0224 28.832V26.8143H64.1824V26.0003H65.0224V24.8833L66.1048 24.6062V26.0003H67.2739V26.8143H66.1048V28.7627C66.1048 29.0629 66.1626 29.2736 66.278 29.3949C66.3935 29.5161 66.5522 29.5767 66.7543 29.5767C66.864 29.5767 66.9563 29.5681 67.0314 29.5508C67.1122 29.5334 67.1902 29.5103 67.2652 29.4815V30.3388C67.1671 30.3792 67.0574 30.408 66.9361 30.4254C66.8207 30.4485 66.7081 30.46 66.5984 30.46Z" fill="#1987B6"/>
<path d="M70.472 30.3734V24.2684H73.1824C73.8521 24.2684 74.363 24.4301 74.7152 24.7534C75.0673 25.0767 75.2434 25.5212 75.2434 26.0869C75.2434 26.6469 75.0673 27.0914 74.7152 27.4205C74.363 27.7496 73.8521 27.9141 73.1824 27.9141H71.5891V30.3734H70.472ZM71.5891 27.0308H73.0525C73.422 27.0308 73.6991 26.95 73.8839 26.7884C74.0686 26.6209 74.161 26.3871 74.161 26.0869C74.161 25.7867 74.0686 25.5558 73.8839 25.3942C73.6991 25.2268 73.422 25.1431 73.0525 25.1431H71.5891V27.0308Z" fill="#1987B6"/>
<path d="M77.9157 30.46C77.4654 30.46 77.0758 30.3676 76.7467 30.1829C76.4176 29.9982 76.1607 29.7355 75.976 29.3949C75.797 29.0543 75.7076 28.6502 75.7076 28.1825C75.7076 27.7149 75.797 27.3137 75.976 26.9789C76.1607 26.6383 76.4176 26.3756 76.7467 26.1909C77.0758 26.0061 77.4654 25.9138 77.9157 25.9138C78.366 25.9138 78.7557 26.0061 79.0848 26.1909C79.4196 26.3756 79.6765 26.6383 79.8555 26.9789C80.0402 27.3137 80.1326 27.7149 80.1326 28.1825C80.1326 28.6502 80.0402 29.0543 79.8555 29.3949C79.6765 29.7355 79.4196 29.9982 79.0848 30.1829C78.7557 30.3676 78.366 30.46 77.9157 30.46ZM77.9157 29.6287C78.2563 29.6287 78.5277 29.5103 78.7297 29.2736C78.9318 29.0312 79.0328 28.6675 79.0328 28.1825C79.0328 27.6976 78.9318 27.3368 78.7297 27.1001C78.5277 26.8634 78.2563 26.7451 77.9157 26.7451C77.5751 26.7451 77.3038 26.8634 77.1017 27.1001C76.8997 27.3368 76.7987 27.6976 76.7987 28.1825C76.7987 28.6675 76.8997 29.0312 77.1017 29.2736C77.3038 29.5103 77.5751 29.6287 77.9157 29.6287Z" fill="#1987B6"/>
<path d="M81.0574 30.3734V27.1174C81.0574 26.9327 81.0516 26.7451 81.0401 26.5546C81.0343 26.364 81.0199 26.1793 80.9968 26.0003H82.0446L82.1658 27.1954H81.9926C82.0503 26.9067 82.1456 26.6671 82.2784 26.4766C82.4169 26.2861 82.5843 26.1447 82.7806 26.0523C82.9769 25.9599 83.1905 25.9138 83.4214 25.9138C83.5253 25.9138 83.609 25.9195 83.6726 25.9311C83.7361 25.9368 83.7996 25.9513 83.8631 25.9744L83.8544 26.9269C83.7447 26.8807 83.6495 26.8519 83.5686 26.8403C83.4936 26.8288 83.3983 26.823 83.2829 26.823C83.0346 26.823 82.8239 26.875 82.6507 26.9789C82.4833 27.0828 82.3563 27.2271 82.2697 27.4118C82.1889 27.5966 82.1485 27.8073 82.1485 28.044V30.3734H81.0574Z" fill="#1987B6"/>
<path d="M86.5813 30.46C86.0617 30.46 85.6691 30.3243 85.4036 30.053C85.138 29.7817 85.0052 29.3747 85.0052 28.832V26.8143H84.1653V26.0003H85.0052V24.8833L86.0877 24.6062V26.0003H87.2567V26.8143H86.0877V28.7627C86.0877 29.0629 86.1454 29.2736 86.2609 29.3949C86.3763 29.5161 86.5351 29.5767 86.7371 29.5767C86.8468 29.5767 86.9392 29.5681 87.0142 29.5508C87.0951 29.5334 87.173 29.5103 87.2481 29.4815V30.3388C87.1499 30.3792 87.0402 30.408 86.919 30.4254C86.8035 30.4485 86.691 30.46 86.5813 30.46Z" fill="#1987B6"/>
<path d="M89.6806 30.46C89.2995 30.46 88.9647 30.3705 88.6761 30.1916C88.3874 30.0068 88.1623 29.7441 88.0006 29.4035C87.839 29.0629 87.7582 28.6559 87.7582 28.1825C87.7582 27.7092 87.839 27.305 88.0006 26.9702C88.1623 26.6296 88.3874 26.3698 88.6761 26.1909C88.9647 26.0061 89.2995 25.9138 89.6806 25.9138C90.05 25.9138 90.3733 26.0061 90.6504 26.1909C90.9333 26.3698 91.1209 26.6123 91.2133 26.9183H91.118L91.2133 26.0003H92.2524C92.2351 26.1793 92.2178 26.3612 92.2005 26.5459C92.1889 26.7306 92.1832 26.9125 92.1832 27.0914V30.3734H91.1094L91.1007 29.4728H91.2046C91.1123 29.773 90.9246 30.0126 90.6418 30.1916C90.3589 30.3705 90.0385 30.46 89.6806 30.46ZM89.9836 29.6287C90.3243 29.6287 90.5985 29.5103 90.8063 29.2736C91.0141 29.0312 91.118 28.6675 91.118 28.1825C91.118 27.6976 91.0141 27.3368 90.8063 27.1001C90.5985 26.8634 90.3243 26.7451 89.9836 26.7451C89.643 26.7451 89.3688 26.8634 89.161 27.1001C88.9532 27.3368 88.8493 27.6976 88.8493 28.1825C88.8493 28.6675 88.9503 29.0312 89.1523 29.2736C89.3602 29.5103 89.6373 29.6287 89.9836 29.6287Z" fill="#1987B6"/>
<path d="M93.3619 30.3734V24H94.4443V30.3734H93.3619Z" fill="#1987B6"/>
<defs>
<linearGradient id="paint0_linear_1704_1329" x1="-18.7342" y1="13.7753" x2="50.0146" y2="46.0621" gradientUnits="userSpaceOnUse">
<stop stop-color="#00B993"/>
<stop offset="1" stop-color="#0080BC"/>
</linearGradient>
</defs>
</svg>
