<svg width="20" height="20" viewBox="0 0 20 20" fill="none" xmlns="http://www.w3.org/2000/svg">
<path d="M17.5988 19.9999H3.17718C3.01789 19.9999 2.88867 19.872 2.88867 19.7142V0.285673C2.88867 0.127867 3.01789 5.39875e-07 3.17718 5.39875e-07H12.9858C13.0623 -0.000146971 13.1356 0.0299395 13.1898 0.0833268L17.8043 4.65211L17.8041 4.65226C17.8583 4.7058 17.8887 4.77851 17.8887 4.85416V19.7143C17.8887 19.7904 17.8582 19.8633 17.8037 19.9168C17.7493 19.9705 17.6756 20.0004 17.5988 20L17.5988 19.9999ZM3.4653 19.4286H17.3118V4.97276L12.8646 0.571233H3.4653V19.4286Z" fill="#1987B6"/>
<path d="M17.5982 5.14579H12.9837C12.8244 5.14579 12.6953 5.01793 12.6953 4.86012V0.285673C12.6953 0.127866 12.8244 0 12.9837 0C13.143 0 13.2722 0.127866 13.2722 0.285673V4.57431H17.5982C17.7575 4.57431 17.8865 4.70218 17.8865 4.85998C17.8865 5.01779 17.7575 5.14566 17.5982 5.14566L17.5982 5.14579Z" fill="#1987B6"/>
<g clip-path="url(#clip0_1686_11938)">
<path d="M16.1338 10.9987L15.2959 10.5025L15.7773 9.66829C15.8749 9.49862 15.8835 9.31944 15.8006 9.17616C15.7178 9.03226 15.5582 8.95034 15.3625 8.95034H15.0575L14.3883 8.93899V7.97588C14.3883 7.65158 14.1668 7.48221 13.948 7.48221C13.856 7.48221 13.7627 7.50921 13.6707 7.56199L13.0411 7.92587L12.8214 8.0397L12.34 7.20608C12.2421 7.03641 12.0912 6.93945 11.9258 6.93945C11.7604 6.93945 11.6092 7.03641 11.5113 7.20608L11.1385 7.85193L11.0146 8.04369L10.1809 7.5626C10.0889 7.50921 9.99562 7.48221 9.90326 7.48221C9.6845 7.48221 9.46298 7.65188 9.46298 7.97711L9.45132 8.95095H8.48852C8.29308 8.95095 8.13354 9.03318 8.05069 9.17677C7.96785 9.32006 7.97675 9.49924 8.07432 9.66891L8.44342 10.3077L8.55173 10.5182L7.7178 10.9993C7.54843 11.0975 7.45117 11.2487 7.45117 11.4141C7.45117 11.5795 7.54813 11.7304 7.7178 11.8283L8.34769 12.1928L8.55541 12.3253L8.07432 13.1596C7.97675 13.3286 7.96785 13.5078 8.05069 13.6517C8.13354 13.795 8.29308 13.8769 8.48883 13.8769L9.46298 13.8883V14.8514C9.46298 15.1763 9.6845 15.3457 9.90326 15.3457C9.99562 15.3457 10.0889 15.3187 10.1809 15.2653L11.0302 14.7882L11.5116 15.6218C11.6095 15.7915 11.7607 15.8884 11.9261 15.8884C12.0918 15.8884 12.2428 15.7915 12.3406 15.6218L12.8374 14.7842L13.671 15.2653C13.763 15.318 13.8563 15.3457 13.9487 15.3457C14.1674 15.3457 14.3889 15.176 14.3889 14.8508L14.4003 13.8769H15.3634C15.5591 13.8763 15.7187 13.7941 15.8012 13.6511C15.8838 13.5078 15.8752 13.328 15.7776 13.159L15.3002 12.3097L16.1341 11.8286C16.3035 11.731 16.4004 11.5792 16.4004 11.4138C16.4004 11.2484 16.3035 11.0971 16.1338 10.9987ZM13.9713 11.477C13.7283 11.6172 13.8471 11.6353 13.987 11.8786L13.9288 12.1928L13.4599 12.4997C13.1792 12.4997 12.9486 12.2193 12.9486 12.4997V13.0111V13.5224C12.7139 13.3871 12.5722 12.7776 12.4372 13.0111V13.5224L12.0103 13.4842C11.9198 13.3277 11.8737 13.6517 11.692 13.6517C11.6031 13.6517 11.5886 13.4397 11.5116 13.4842L11.4145 13.159L10.7657 12.7098C10.7657 12.4293 10.6725 12.7098 10.3918 12.7098L10.1809 12.5739L10.5507 12.3253C10.6188 12.2084 10.2162 12.3241 10.1809 12.1928C10.1456 12.0615 10.2984 12.0561 10.1809 11.9883L10.9031 10.9656L11.1385 10.3077C11.3812 10.1675 11.5547 10.1856 11.4145 9.94289L11.4607 9.66829L11.4145 9.44738C11.4145 9.72782 11.6952 9.44738 11.4145 9.44738L11.5116 9.77995C11.746 9.91525 11.7909 10.1764 11.9259 9.94289C12.0605 10.1761 12.1059 10.1854 12.3406 10.0498L12.3909 10.3077V11.4132C12.3909 11.5491 11.1213 13.7697 12.34 11.5533C12.436 11.6496 12.8124 11.477 12.9486 11.477L13.4599 10.9656C13.3918 11.0831 13.9363 10.8343 13.9713 10.9656C13.8538 10.8978 14.0066 11.0975 13.9713 10.9656V11.477Z" fill="white"/>
<path d="M16.1338 10.9987L15.2959 10.5025L15.7773 9.66829C15.8749 9.49862 15.8835 9.31944 15.8006 9.17616C15.7178 9.03226 15.5582 8.95034 15.3625 8.95034H15.0575L14.3883 8.93899V7.97589C14.3883 7.65158 14.1668 7.48221 13.948 7.48221C13.856 7.48221 13.7627 7.50921 13.6707 7.56199L13.0411 7.92587L12.8214 8.0397L12.34 7.20608C12.2421 7.03641 12.0912 6.93945 11.9258 6.93945C11.7604 6.93945 11.6092 7.03641 11.5113 7.20608L11.1385 7.85193L11.0146 8.04369L10.1809 7.5626C10.0889 7.50921 9.99562 7.48221 9.90326 7.48221C9.6845 7.48221 9.46298 7.65188 9.46298 7.97711L9.45132 8.95095H8.48852C8.29308 8.95095 8.13354 9.03318 8.05069 9.17677C7.96785 9.32006 7.97675 9.49924 8.07432 9.66891L8.44342 10.3077L8.55173 10.5182L7.7178 10.9993C7.54843 11.0975 7.45117 11.2487 7.45117 11.4141C7.45117 11.5795 7.54813 11.7304 7.7178 11.8283L8.34769 12.1928L8.55541 12.3253L8.07432 13.1596C7.97675 13.3286 7.96785 13.5078 8.05069 13.6517C8.13354 13.795 8.29308 13.8769 8.48883 13.8769L9.46298 13.8883V14.8514C9.46298 15.1763 9.6845 15.3457 9.90326 15.3457C9.99562 15.3457 10.0889 15.3187 10.1809 15.2653L11.0302 14.7882L11.5116 15.6218C11.6095 15.7915 11.7607 15.8884 11.9261 15.8884C12.0918 15.8884 12.2428 15.7915 12.3406 15.6218L12.8374 14.7842L13.671 15.2653C13.763 15.318 13.8563 15.3457 13.9487 15.3457C14.1674 15.3457 14.3889 15.176 14.3889 14.8508L14.4003 13.8769H15.3634C15.5591 13.8763 15.7187 13.7941 15.8012 13.6511C15.8838 13.5078 15.8752 13.328 15.7776 13.159L15.3002 12.3097L16.1341 11.8286C16.3035 11.731 16.4004 11.5792 16.4004 11.4138C16.4004 11.2484 16.3035 11.0971 16.1338 10.9987ZM15.0514 11.8786C14.8084 12.0188 14.7252 12.3306 14.8651 12.5739L15.3303 13.3793H14.4003C14.1196 13.3793 13.8916 13.6075 13.8916 13.888V14.8179L13.0862 14.3528C12.8515 14.2175 12.5259 14.3055 12.3909 14.539L11.9258 15.3444L11.4607 14.539C11.3702 14.3826 11.2011 14.285 11.0195 14.285C10.9305 14.285 10.8427 14.3083 10.7657 14.3528L9.96033 14.8179V13.888C9.96033 13.6075 9.73206 13.3793 9.45132 13.3793H8.52166L8.98649 12.5739C9.0546 12.457 9.0724 12.3192 9.03711 12.1879C9.00183 12.0566 8.91776 11.947 8.80025 11.8792L7.99485 11.4141L8.80056 10.949C9.04325 10.8087 9.12671 10.4964 8.98649 10.2537L8.52135 9.44831H9.45101C9.73175 9.44831 9.96002 9.22003 9.96002 8.9396V8.00963L10.7654 8.47477C10.9998 8.61008 11.3257 8.52202 11.4607 8.28853L11.9258 7.48283L12.3906 8.28823C12.5253 8.52141 12.8509 8.61008 13.0856 8.47446L13.891 8.00871V8.93868C13.891 9.0746 13.9438 9.20224 14.0401 9.29827C14.1361 9.39461 14.2638 9.44738 14.4 9.44738H15.33L14.8648 10.2528C14.7967 10.3703 14.7789 10.5074 14.8139 10.6388C14.8492 10.7707 14.9332 10.8802 15.0508 10.948L15.8565 11.4132L15.0514 11.8786Z" fill="#1987B6"/>
<path d="M10.8528 14.2734L10.1386 14.6858C10.0235 14.7524 9.90537 14.7858 9.78663 14.7858C9.65746 14.7858 9.54179 14.7475 9.44791 14.6784L7.8457 17.8614L10.2668 16.8725L10.9961 18.0596L11.3348 15.0871C11.31 15.0564 11.2864 15.0242 11.2655 14.9877L10.8528 14.2734Z" fill="#1987B6"/>
<path d="M14.0658 14.7858C13.9474 14.7858 13.8289 14.7524 13.7139 14.6858L12.9996 14.2734L12.5869 14.9877C12.5661 15.0242 12.5424 15.0567 12.5176 15.0871L12.8563 18.0596L13.5856 16.8725L16.0067 17.8614L14.4045 14.6787C14.3106 14.7475 14.195 14.7858 14.0658 14.7858Z" fill="#1987B6"/>
<ellipse cx="11.926" cy="11.4767" rx="2.55682" ry="2.55682" fill="#1987B6"/>
<path fill-rule="evenodd" clip-rule="evenodd" d="M13.3161 10.46C13.4659 10.6098 13.4659 10.8526 13.3161 11.0024L11.7501 12.5684C11.6003 12.7182 11.3575 12.7182 11.2077 12.5684L10.4619 11.8227C10.3122 11.6729 10.3122 11.4301 10.4619 11.2803C10.6117 11.1305 10.8545 11.1305 11.0043 11.2803L11.4789 11.7548L12.7737 10.46C12.9235 10.3102 13.1663 10.3102 13.3161 10.46Z" fill="#F6F8FC"/>
</g>
<defs>
<clipPath id="clip0_1686_11938">
<rect width="10.3125" height="11.25" fill="white" transform="translate(6.8125 6.875)"/>
</clipPath>
</defs>
</svg>
